<svg xmlns="http://www.w3.org/2000/svg" viewBox="0 0 64 64" role="img" aria-label="UniWRT">
  <defs>
    <linearGradient id="g" x1="8" y1="8" x2="56" y2="56" gradientUnits="userSpaceOnUse">
      <stop stop-color="#37a4ff"/>
      <stop offset="0.5" stop-color="#4f7cff"/>
      <stop offset="1" stop-color="#6ee7c8"/>
    </linearGradient>
    <filter id="s" x="-20%" y="-20%" width="140%" height="140%">
      <feDropShadow dx="0" dy="8" stdDeviation="6" flood-color="#1b4fff" flood-opacity=".25"/>
    </filter>
  </defs>
  <rect x="6" y="6" width="52" height="52" rx="16" fill="url(#g)" filter="url(#s)"/>
  <path d="M19 23.5c0-2.2 1.8-4 4-4h18c2.2 0 4 1.8 4 4v17c0 2.2-1.8 4-4 4H23c-2.2 0-4-1.8-4-4v-17Z" fill="rgba(255,255,255,.18)" stroke="rgba(255,255,255,.55)" stroke-width="2"/>
  <path d="M24 30h16M24 36h9" stroke="#fff" stroke-width="3" stroke-linecap="round"/>
  <circle cx="41" cy="36" r="3" fill="#fff"/>
  <path d="M18 17l6 6M46 17l-6 6M18 47l6-6M46 47l-6-6" stroke="#fff" stroke-width="2.5" stroke-linecap="round" opacity=".9"/>
</svg>
