<svg xmlns="http://www.w3.org/2000/svg" viewBox="0 0 96 96" role="img" aria-label="UniWRT">
  <defs>
    <linearGradient id="uw-g" x1="12" y1="8" x2="86" y2="90" gradientUnits="userSpaceOnUse">
      <stop stop-color="#8ee7ff"/>
      <stop offset="0.48" stop-color="#20b8ff"/>
      <stop offset="1" stop-color="#2457e6"/>
    </linearGradient>
    <radialGradient id="uw-glow" cx="30%" cy="18%" r="70%">
      <stop stop-color="white" stop-opacity="0.55"/>
      <stop offset="0.42" stop-color="white" stop-opacity="0.05"/>
      <stop offset="1" stop-color="white" stop-opacity="0"/>
    </radialGradient>
    <filter id="uw-shadow" x="-30%" y="-30%" width="160%" height="160%">
      <feDropShadow dx="0" dy="16" stdDeviation="12" flood-color="#0284c7" flood-opacity=".28"/>
    </filter>
  </defs>
  <rect x="9" y="9" width="78" height="78" rx="25" fill="url(#uw-g)" filter="url(#uw-shadow)"/>
  <rect x="9" y="9" width="78" height="78" rx="25" fill="url(#uw-glow)"/>
  <path d="M28 28v28c0 14 9 23 20 23s20-9 20-23V28" fill="none" stroke="white" stroke-width="8" stroke-linecap="round" stroke-linejoin="round" opacity=".98"/>
  <path d="M36 34h24" fill="none" stroke="white" stroke-width="5" stroke-linecap="round" opacity=".35"/>
  <path d="M48 58V43M48 43 34 54M48 43l14 11" fill="none" stroke="white" stroke-width="4.8" stroke-linecap="round" stroke-linejoin="round" opacity=".95"/>
  <circle cx="48" cy="41" r="5.5" fill="white"/>
  <circle cx="33" cy="55" r="4.8" fill="white" opacity=".96"/>
  <circle cx="63" cy="55" r="4.8" fill="white" opacity=".96"/>
  <path d="M25 23c12-8 34-9 47 0" fill="none" stroke="white" stroke-width="3.4" stroke-linecap="round" opacity=".36"/>
</svg>
